Coordinates
version=1
nRows=17
nColumns=40
inDegrees=yes

Units are S.I. units (second, meters, Newtons, ...)
Angles are in degrees.

endheader
time	pelvis_tilt	pelvis_list	pelvis_rotation	pelvis_tx	pelvis_ty	pelvis_tz	hip_flexion_r	hip_adduction_r	hip_rotation_r	knee_angle_r	knee_angle_r_beta	ankle_angle_r	subtalar_angle_r	mtp_angle_r	hip_flexion_l	hip_adduction_l	hip_rotation_l	knee_angle_l	knee_angle_l_beta	ankle_angle_l	subtalar_angle_l	mtp_angle_l	lumbar_extension	lumbar_bending	lumbar_rotation	arm_flex_r	arm_add_r	arm_rot_r	elbow_flex_r	pro_sup_r	wrist_flex_r	wrist_dev_r	arm_flex_l	arm_add_l	arm_rot_l	elbow_flex_l	pro_sup_l	wrist_flex_l	wrist_dev_l
      0.00000000	     -1.32605512	     -2.81015973	      0.40153750	     -1.29527265	      0.89645906	      1.45410341	     -1.90439310	      3.04464938	    -17.30850057	    -15.64625595	     -0.27307868	     13.09682795	      7.36463588	     -8.56801193	     25.30885578	      3.66217462	      7.23071163	    -29.33426755	     -0.51197955	      4.83934583	      1.73849384	    -10.32350850	    -12.03350351	      4.70370728	      7.10785805	      9.92890632	    -12.99553081	     21.01072811	     16.54200489	     89.95437384	      0.00000000	      0.00000000	     -3.59304421	      7.41678198	    -18.42713731	     24.33161510	     89.95437384	      0.00000000	      0.00000000
      0.01000000	     -1.30498552	     -2.96204579	      0.42157702	     -1.28989882	      0.89521127	      1.45414522	     -2.23790175	      3.20723276	    -17.35222518	    -15.79676007	     -0.27570547	     13.26067026	      7.26631347	     -8.52673804	     26.04010684	      3.93262603	      7.30548861	    -28.53777944	     -0.49807821	      4.50515397	      1.72822196	    -10.15246654	    -11.99668168	      4.83694310	      7.16661425	     10.05792269	    -13.00449331	     21.04707787	     16.59958399	     89.95437384	      0.00000000	      0.00000000	     -3.61251689	      7.25843833	    -18.47431647	     24.17881504	     89.95437384	      0.00000000	      0.00000000
      0.02000000	     -1.13692557	     -2.84523391	      0.40686869	     -1.28404780	      0.89458015	      1.45388529	     -2.76248529	      3.08936869	    -16.99890513	    -15.98160619	     -0.27893165	     13.74585172	      7.14409569	     -8.53904750	     26.22247480	      3.81493887	      7.14015940	    -27.05158971	     -0.47213931	      2.29531740	      1.34936349	     -9.78222127	    -12.26763470	      4.71161113	      7.20777907	     10.16542438	    -13.06382073	     21.30156693	     16.78101172	     89.95437384	      0.00000000	      0.00000000	     -3.45169446	      6.96165942	    -18.21288857	     23.59118163	     89.95437384	      0.00000000	      0.00000000
      0.03000000	     -1.02726647	     -2.97928540	      0.42445226	     -1.27826001	      0.89344326	      1.45374330	     -3.20093021	      3.21576350	    -16.97721156	    -16.18481799	     -0.28247836	     14.02926538	      7.03052399	     -8.52898885	     26.67224765	      4.06397752	      7.26618739	    -26.03138911	     -0.45433345	      1.19503244	      1.32186912	     -9.49972722	    -12.32306194	      4.83930666	      7.25674734	     10.27696377	    -13.08845359	     21.44515426	     16.85178334	     89.95437384	      0.00000000	      0.00000000	     -3.46295399	      6.82473751	    -18.08713836	     23.35951173	     89.95437384	      0.00000000	      0.00000000
      0.04000000	     -0.95319181	     -2.93456008	      0.39610760	     -1.27250263	      0.89241551	      1.45357918	     -3.57067724	      3.15063369	    -16.78487266	    -16.44662059	     -0.28704768	     14.29097655	      6.91108398	     -8.51283908	     26.97552920	      4.11340020	      7.43899980	    -24.68063586	     -0.43075836	     -0.49010511	      1.14176846	     -9.11153120	    -12.45674783	      4.74738147	      7.32171484	     10.38039432	    -13.11856222	     21.62926233	     17.04540626	     89.95437384	      0.00000000	      0.00000000	     -3.42590773	      6.72440194	    -17.77679093	     23.15531412	     89.95437384	      0.00000000	      0.00000000
      0.05000000	     -0.83402665	     -2.86317999	      0.40318978	     -1.26639867	      0.89141919	      1.45321468	     -4.01803010	      3.03256676	    -16.66707590	    -16.70577704	     -0.29157081	     14.63039590	      6.72202716	     -8.50700423	     27.24229661	      4.15620911	      7.89918363	    -23.48219173	     -0.40984156	     -2.14111983	      1.04831691	     -8.72724892	    -12.60890370	      4.66151806	      7.25037123	     10.54028703	    -13.11316773	     21.82449661	     17.17237955	     89.95437384	      0.00000000	      0.00000000	     -3.41175748	      6.63083246	    -17.42306512	     22.90135051	     89.95437384	      0.00000000	      0.00000000
      0.06000000	     -0.66589743	     -2.65136500	      0.28208361	     -1.25991551	      0.89054358	      1.45291218	     -4.50635358	      2.72884211	    -16.46418416	    -17.03226723	     -0.29726914	     14.93238336	      6.51175589	     -8.51921497	     27.28812307	      4.14241427	      8.70859022	    -22.15451797	     -0.38666928	     -3.67696890	      0.75611039	     -8.32523376	    -12.84729160	      4.37236179	      7.27930784	     10.65596796	    -13.12267470	     22.07740381	     17.31326584	     89.95437384	      0.00000000	      0.00000000	     -3.53912344	      6.57066262	    -16.60811212	     22.95761346	     89.95437384	      0.00000000	      0.00000000
      0.07000000	     -0.70091832	     -2.76721994	      0.32112471	     -1.25376683	      0.88930352	      1.45258276	     -4.74302373	      2.83151470	    -16.24499148	    -17.36340677	     -0.30304862	     15.13217558	      6.39908142	     -8.51846123	     27.69164546	      4.34167149	      8.96367901	    -21.03327246	     -0.36709986	     -4.99042516	      0.72541645	     -7.99703331	    -12.85538368	      4.47675578	      7.21312210	     10.79704653	    -13.10614488	     22.10533647	     17.41217274	     89.95437384	      0.00000000	      0.00000000	     -3.50900745	      6.58449381	    -16.59523408	     22.85301694	     89.95437384	      0.00000000	      0.00000000
      0.08000000	     -0.60686915	     -2.59253751	      0.14496030	     -1.24718127	      0.88832438	      1.45224366	     -5.12856668	      2.54939650	    -15.93030663	    -17.74074031	     -0.30963433	     15.36387362	      6.11071515	     -8.53625531	     27.72416068	      4.34818376	      9.75295118	    -19.73523174	     -0.34444477	     -5.93476520	      0.50947870	     -7.72016119	    -12.97531401	      4.21673059	      7.30961627	     10.89673556	    -13.05844746	     22.10732700	     17.48201795	     89.95437384	      0.00000000	      0.00000000	     -3.57017289	      6.67984636	    -16.61826189	     22.89068458	     89.95437384	      0.00000000	      0.00000000
      0.09000000	     -0.68305149	     -2.78908559	      0.20950285	     -1.24056543	      0.88691803	      1.45158304	     -5.39573098	      2.69624480	    -15.86738456	    -17.97874513	     -0.31378830	     15.44287617	      6.04335989	     -8.51281669	     28.15719353	      4.60515456	     10.09908815	    -18.89763327	     -0.32982592	     -5.90680101	      0.46502979	     -7.61939560	    -12.79382166	      4.42893320	      7.23968208	     10.97147424	    -13.04718549	     22.10506249	     17.48303462	     89.95437384	      0.00000000	      0.00000000	     -3.62041196	      6.72812203	    -16.70921247	     22.87415801	     89.95437384	      0.00000000	      0.00000000
      0.10000000	     -0.56184991	     -2.51493093	     -0.20652296	     -1.23349131	      0.88634603	      1.45155015	     -5.80307875	      2.27717495	    -15.21453315	    -18.41679735	     -0.32143375	     15.61580261	      5.93226634	     -8.56844107	     27.79624910	      4.55593026	     10.99080346	    -17.28308323	     -0.30164671	     -6.45591649	     -0.12416313	     -7.50350307	    -13.03444726	      3.99615883	      7.52586109	     11.09893917	    -12.92261759	     21.97803698	     17.46975556	     89.95437384	      0.00000000	      0.00000000	     -3.70828679	      6.96831346	    -16.93417365	     23.16245811	     89.95437384	      0.00000000	      0.00000000
      0.11000000	     -0.68337445	     -2.64539233	     -0.33025159	     -1.22664346	      0.88521707	      1.45098357	     -6.00557001	      2.30992579	    -14.94011865	    -18.70004964	     -0.32637744	     15.56142991	      5.97827025	     -8.57454888	     28.02362538	      4.76500058	     11.24071606	    -16.33542325	     -0.28510692	     -6.01308333	     -0.57504598	     -7.53844602	    -12.88191294	      4.09876465	      7.56676026	     11.22783848	    -12.86172377	     21.97319872	     17.39882339	     89.95437384	      0.00000000	      0.00000000	     -3.57843515	      7.01836941	    -17.35586999	     22.82705398	     89.95437384	      0.00000000	      0.00000000
      0.12000000	     -0.78618903	     -2.67857432	     -0.51673377	     -1.21946390	      0.88416502	      1.45050514	     -6.26710159	      2.21568631	    -14.63546371	    -18.95768361	     -0.33087400	     15.54646771	      6.03722760	     -8.58107794	     28.13679358	      4.91173276	     11.74539478	    -15.38194207	     -0.26846553	     -5.61420287	     -0.86504077	     -7.55487580	    -12.73728445	      4.08238874	      7.65158920	     11.30247381	    -12.78429016	     21.92485072	     17.39018457	     89.95437384	      0.00000000	      0.00000000	     -3.57517162	      7.17708631	    -17.79451999	     22.80190547	     89.95437384	      0.00000000	      0.00000000
      0.13000000	     -0.70580753	     -2.47780733	     -0.86320359	     -1.21193604	      0.88358452	      1.45006487	     -6.69972146	      1.80721119	    -14.20706218	    -19.29764689	     -0.33680748	     15.55515736	      6.20963265	     -8.65772702	     27.86507856	      4.88107643	     12.57831085	    -14.35152921	     -0.25048144	     -5.38622903	     -1.32738749	     -7.61066224	    -12.81448556	      3.75532801	      7.86931560	     11.33270697	    -12.69674561	     21.69338770	     17.41142286	     89.95437384	      0.00000000	      0.00000000	     -3.58968872	      7.48786841	    -18.86768767	     22.94977671	     89.95437384	      0.00000000	      0.00000000
      0.14000000	     -0.91637883	     -2.56877466	     -0.93446877	     -1.20434313	      0.88255665	      1.44937904	     -6.90079391	      1.78674254	    -14.07046514	    -19.48762987	     -0.34012330	     15.42398770	      6.19105459	     -8.60338044	     28.16402519	      5.03712027	     12.81538752	    -13.93641774	     -0.24323638	     -5.08346636	     -1.34416747	     -7.56317404	    -12.54389840	      3.81364083	      7.73678941	     11.35737656	    -12.59073526	     21.66360488	     17.48537935	     89.95437384	      0.00000000	      0.00000000	     -3.64513289	      7.60592092	    -18.94736567	     22.89778224	     89.95437384	      0.00000000	      0.00000000
      0.15000000	     -1.09572389	     -2.57241585	     -1.11468184	     -1.19665871	      0.88169363	      1.44855973	     -7.06828280	      1.64348145	    -13.70995274	    -19.77987680	     -0.34522398	     15.24248993	      6.21063334	     -8.56105246	     28.24154409	      5.10678859	     12.97125973	    -13.39763842	     -0.23383290	     -4.72776895	     -1.41834154	     -7.53013407	    -12.34510161	      3.76947833	      7.70676859	     11.41184824	    -12.51512511	     21.63300103	     17.49589034	     89.95437384	      0.00000000	      0.00000000	     -3.65127518	      7.69966819	    -19.14941882	     22.76061090	     89.95437384	      0.00000000	      0.00000000
      0.16000000	     -0.86580521	     -2.11101641	     -1.64483375	     -1.18837414	      0.88175700	      1.44804578	     -7.60555564	      0.90234605	    -13.05069977	    -20.24309222	     -0.35330861	     14.91962683	      6.34327527	     -8.67827360	     27.48051597	      4.75582675	     13.27111706	    -12.65443692	     -0.22086159	     -4.52746471	     -1.01982884	     -7.47441640	    -12.59570455	      3.11554698	      8.07046315	     11.35671260	    -12.41009520	     21.28485121	     17.63111845	     89.95437384	      0.00000000	      0.00000000	     -3.48758068	      8.09471311	    -20.58790501	     22.69630854	     89.95437384	      0.00000000	      0.00000000
